# xmcd CD database file
#
# Track frame offsets:
#	150
#	44218
#	90859
#	146237
#
# Disc length: 3681 seconds
#
# Revision: 0
# Processed by: cddbd v1.5.2PL0 Copyright (c) Steve Scherf et al.
# Submitted via: CDex 1.70beta2
#
DISCID=340e5f04
DTITLE=Jay Gee - Bhagavad Gita [CD4)
DYEAR=2003
DGENRE=New Age
TTITLE0=Ch15: The Yoga of the supreme person
TTITLE1=Ch16: The devine and demonical natures
TTITLE2=Ch17: The divisions of faith
TTITLE3=Ch18: Conclusion - The perfection of renunciation
EXTD=YEAR: 2003
EXTT0=
EXTT1=
EXTT2=
EXTT3=
PLAYORDER=
